<?xml version="1.0" encoding="UTF-8" standalone="no"?>
<!-- Created with Inkscape (http://www.inkscape.org/) -->

<svg
   width="267.99823mm"
   height="267.92441mm"
   viewBox="0 0 267.99823 267.92441"
   version="1.1"
   id="svg5"
   xml:space="preserve"
   inkscape:version="1.2.2 (b0a8486541, 2022-12-01)"
   sodipodi:docname="og_card.svg"
   xmlns:inkscape="http://www.inkscape.org/namespaces/inkscape"
   xmlns:sodipodi="http://sodipodi.sourceforge.net/DTD/sodipodi-0.dtd"
   xmlns="http://www.w3.org/2000/svg"
   xmlns:svg="http://www.w3.org/2000/svg"><sodipodi:namedview
     id="namedview7"
     pagecolor="#505050"
     bordercolor="#eeeeee"
     borderopacity="1"
     inkscape:showpageshadow="0"
     inkscape:pageopacity="0"
     inkscape:pagecheckerboard="0"
     inkscape:deskcolor="#505050"
     inkscape:document-units="mm"
     showgrid="false"
     inkscape:zoom="0.42524865"
     inkscape:cx="-1171.0796"
     inkscape:cy="419.75442"
     inkscape:window-width="1920"
     inkscape:window-height="1005"
     inkscape:window-x="0"
     inkscape:window-y="40"
     inkscape:window-maximized="1"
     inkscape:current-layer="layer1" /><defs
     id="defs2" /><g
     inkscape:label="Пласт 1"
     inkscape:groupmode="layer"
     id="layer1"
     transform="translate(620.08388,-38.756518)"><rect
       style="fill:#f6f1f1;fill-opacity:1;stroke-width:8.07777;stroke-linecap:round"
       id="rect8177"
       width="267.99826"
       height="267.92441"
       x="-620.08386"
       y="38.756516"
       ry="10.739604"
       inkscape:export-filename="icon-512.svg"
       inkscape:export-xdpi="48.525692"
       inkscape:export-ydpi="48.525692" /><path
       style="fill:#ed343c;fill-opacity:1;stroke-width:0.264583"
       d="m -524.95439,256.59294 c -0.39621,-0.11673 -0.46302,-0.47724 -0.46302,-2.49826 v -2.36186 l 0.7276,-0.002 c 2.72469,-0.006 4.82067,-2.179 4.82717,-5.00564 0.001,-0.61463 -1.85735,-5.3019 -6.69668,-16.88716 l -2.23804,-5.35781 h 3.11688 c 2.72176,0 3.14026,0.0587 3.3014,0.46302 0.46684,1.17135 4.74483,13.01609 5.04079,13.95677 0.21974,0.69841 0.38778,0.92336 0.49411,0.66146 0.0886,-0.21828 1.27823,-3.67109 2.64358,-7.67292 l 2.48246,-7.27604 2.80205,-0.075 2.80204,-0.075 -0.5192,1.39796 c -0.28556,0.76888 -2.37563,6.68886 -4.6446,13.15553 -2.26898,6.46666 -4.36558,12.22834 -4.65912,12.80372 -0.82167,1.6106 -2.73927,3.49721 -4.18824,4.12054 -1.2934,0.5564 -3.94082,0.91397 -4.82918,0.65224 z m 75.26521,-9.66307 c -2.44148,-0.38827 -4.15384,-1.58421 -5.24574,-3.66371 -0.71162,-1.35527 -0.66682,-4.2848 0.0874,-5.71359 0.66984,-1.26898 2.17505,-2.66305 3.45098,-3.19617 0.98219,-0.41039 5.16737,-0.85675 8.16592,-0.87091 l 1.88573,-0.009 -0.12979,-1.25678 c -0.0714,-0.69122 -0.3287,-1.61395 -0.57181,-2.05052 -0.89818,-1.61287 -3.70443,-2.23056 -5.58753,-1.22988 -0.79757,0.42383 -1.89477,1.65468 -2.16086,2.42408 -0.0671,0.19411 -3.16781,-0.42613 -4.63633,-0.92741 -0.23972,-0.0818 -0.21168,-0.42395 0.11279,-1.37623 0.58362,-1.71283 2.68882,-3.80607 4.44182,-4.4166 2.85797,-0.99535 7.39826,-0.78989 9.88702,0.44742 0.63691,0.31664 1.61024,1.08946 2.16295,1.71737 1.74953,1.98757 1.83841,2.55527 1.83841,11.74276 v 8.15495 h -2.51354 -2.51355 v -1.3509 -1.35089 l -0.73421,0.78598 c -0.40382,0.43229 -1.22633,1.03704 -1.82781,1.34389 -0.97442,0.49711 -1.66131,0.65642 -4.05256,0.93992 -0.3638,0.0431 -1.29047,-0.0216 -2.05926,-0.14387 z m 5.77752,-4.59704 c 1.44335,-0.74639 2.62625,-2.97418 2.63026,-4.95365 l 0.001,-0.7276 -2.57969,0.002 c -1.41882,8e-4 -3.01852,0.12336 -3.55486,0.27233 -3.00763,0.83534 -3.16203,5.08646 -0.21126,5.81663 1.13645,0.28123 2.71536,0.10727 3.71407,-0.40918 z m -119.73804,4.31168 c -5.57351,-1.99446 -5.85642,-9.78037 -0.4424,-12.17524 1.23929,-0.5482 4.72982,-0.97399 8.07921,-0.98552 l 2.08056,-0.007 -0.18794,-1.25329 c -0.41006,-2.73448 -1.68401,-3.865 -4.17518,-3.7051 -1.72151,0.11049 -2.62889,0.64113 -3.58957,2.09919 l -0.61656,0.93579 -2.16156,-0.53031 c -1.18886,-0.29168 -2.25236,-0.6105 -2.36332,-0.70849 -0.30409,-0.26855 0.3611,-1.9426 1.29999,-3.27164 1.7274,-2.44522 6.234,-3.66948 10.45254,-2.83954 2.22546,0.43784 3.3814,1.06733 4.6901,2.55409 1.76875,2.00941 1.88308,2.73354 1.88308,11.92669 v 8.02177 h -2.51354 -2.51354 v -1.28195 -1.28195 l -1.03495,0.98453 c -0.56923,0.54149 -1.60247,1.1779 -2.2961,1.41424 -1.44353,0.49186 -5.33522,0.55321 -6.59082,0.1039 z m 7.02555,-4.31168 c 1.43839,-0.74383 2.63174,-2.9309 2.63174,-4.82325 v -0.91512 l -2.97657,0.0997 c -3.36876,0.11289 -4.39643,0.51073 -5.08895,1.97011 -0.57702,1.21599 -0.49682,2.0663 0.28225,2.99217 1.12936,1.34217 3.31027,1.6285 5.15153,0.67635 z m 19.57696,4.34846 c -1.85564,-0.36375 -3.45194,-1.50038 -4.23074,-3.01244 -0.66495,-1.29104 -0.67723,-1.4212 -0.75481,-8.00129 l -0.0789,-6.6889 h -2.07012 -2.07012 l -0.0443,-2.24896 -0.0443,-2.24896 h 2.12715 2.12716 v -3.175 -3.175 h 2.77812 2.77813 v 3.175 3.175 h 2.77812 2.77813 v 2.24896 2.24896 h -2.77813 -2.77812 l 0.0149,5.09323 c 0.0169,5.77634 0.19298,6.6216 1.57257,7.55052 0.77595,0.52248 1.19414,0.60972 2.58024,0.53833 l 1.6542,-0.0852 -5.3e-4,2.4474 -5.3e-4,2.44739 -2.57969,-0.029 c -1.41882,-0.016 -3.11012,-0.13296 -3.75842,-0.26004 z m 112.72583,-0.0102 c -2.52699,-0.41946 -4.20521,-1.87423 -4.91349,-4.25926 -0.31001,-1.0439 -0.4034,-2.75617 -0.4034,-7.39579 v -6.03739 h -1.98438 -1.98437 v -2.24896 -2.24896 h 1.98437 1.98438 v -3.175 -3.175 h 2.77812 2.77813 v 3.175 3.175 h 2.77812 2.77813 v 2.24896 2.24896 h -2.80164 -2.80165 l 0.0928,5.35781 c 0.0777,4.48722 0.16826,5.49681 0.55716,6.21323 0.66722,1.22912 1.78114,1.72029 3.66032,1.614 l 1.55854,-0.0882 -5.3e-4,2.4474 -5.3e-4,2.44739 -2.3151,-0.0309 c -1.27331,-0.017 -2.9586,-0.13774 -3.74509,-0.26829 z m 13.36997,-0.0892 c -1.4391,-0.51297 -2.81901,-1.70452 -3.52914,-3.04741 -0.46908,-0.88705 -0.60433,-1.56841 -0.59983,-3.02189 0.007,-2.29438 0.55425,-3.61862 2.05374,-4.97054 1.49596,-1.34875 3.115,-1.75947 7.76237,-1.96919 l 3.93641,-0.17763 v -1.02819 c 0,-2.52355 -1.77683,-4.07706 -4.4131,-3.85844 -1.61498,0.13393 -2.55279,0.7023 -3.4795,2.1088 l -0.61656,0.93579 -2.16157,-0.53031 c -1.18886,-0.29168 -2.26432,-0.62247 -2.38992,-0.7351 -0.34437,-0.30881 0.94746,-2.91354 1.93454,-3.90062 0.47768,-0.47768 1.31343,-1.09548 1.85722,-1.3729 2.28611,-1.16629 7.07818,-1.3436 9.92104,-0.36708 1.79267,0.61578 3.60345,2.46254 4.33703,4.42321 0.53413,1.42759 0.56707,1.98388 0.56707,9.5755 v 8.05987 h -2.51354 -2.51354 v -1.3509 -1.35089 l -0.76772,0.82184 c -0.42224,0.45201 -1.4045,1.11828 -2.18281,1.4806 -1.18505,0.55167 -1.8022,0.6573 -3.79635,0.64974 -1.32974,-0.005 -2.83369,-0.17031 -3.40584,-0.37426 z m 7.41519,-4.39913 c 0.47232,-0.29191 1.09738,-0.91683 1.38902,-1.38871 0.51402,-0.8317 1.14157,-3.73203 0.86693,-4.00667 -0.23008,-0.23008 -4.61552,-0.13753 -5.73613,0.12107 -1.52266,0.35137 -2.51354,1.54399 -2.51354,3.0253 0,1.41294 0.55027,2.15647 1.98437,2.68126 1.27866,0.46792 2.82208,0.30152 4.00935,-0.43225 z m -185.6458,-1.56241 c 0,-3.34698 -0.0748,-6.08542 -0.16622,-6.08542 -0.0914,0 -0.81043,0.36857 -1.59777,0.81904 l -1.43153,0.81904 0.0764,-2.45618 0.0764,-2.45617 1.52135,-0.88818 1.52135,-0.88819 v -8.1903 -8.19031 h 3.1703 3.1703 l 0.0709,6.31507 0.0708,6.31508 3.175,-1.81619 c 1.74625,-0.9989 3.23453,-1.81665 3.30729,-1.81723 0.0728,-5.3e-4 0.11183,1.15488 0.0868,2.56768 l -0.0455,2.56872 -3.26183,1.77689 -3.26182,1.7769 -0.0716,5.31174 -0.0716,5.31176 h 6.09089 6.0909 v 2.64583 2.64583 h -9.26042 -9.26042 z m 85.98958,-5.02709 v -11.1125 h 2.91042 2.91042 v 1.34322 1.34322 l 0.6736,-0.80054 c 0.37048,-0.44029 1.35275,-1.13403 2.18281,-1.54165 1.31468,-0.64559 1.81616,-0.74094 3.89046,-0.73974 1.9514,0.001 2.60602,0.11185 3.62639,0.61329 1.46216,0.71855 2.7119,2.05715 3.48941,3.73751 0.52396,1.13241 0.56186,1.71188 0.63684,9.73688 l 0.0797,8.53281 h -2.77659 -2.77658 l -0.0813,-7.47448 c -0.09,-8.27925 -0.13962,-8.53937 -1.86321,-9.76872 -1.25013,-0.89166 -3.93104,-0.8818 -5.1942,0.0191 -1.74707,1.24605 -1.87506,1.92725 -1.88158,10.0142 l -0.006,7.2099 h -2.91042 -2.91042 z m 25.13542,-5.02708 V 214.4266 h 2.77812 2.77813 l 0.008,9.59114 0.008,9.59115 0.68541,-0.79375 c 0.37697,-0.43657 2.18676,-2.49039 4.02176,-4.56407 l 3.33636,-3.77031 h 3.36638 3.36638 l -3.52573,3.63802 c -1.93916,2.00091 -3.84548,4.0203 -4.23629,4.48753 l -0.71055,0.84951 4.02603,5.76507 c 2.21432,3.1708 4.31869,6.15203 4.67639,6.62498 l 0.65036,0.85989 h -3.30236 -3.30236 l -3.23382,-4.63183 -3.23383,-4.63183 -1.28851,1.1261 -1.28852,1.1261 -0.0119,3.50573 -0.0119,3.50573 h -2.77813 -2.77812 z m 87.04791,5.02708 v -11.1125 h 2.50092 2.50092 l 0.0788,1.61197 0.0788,1.61197 0.82636,-1.17526 c 1.08413,-1.54185 2.7153,-2.33721 4.92001,-2.39899 l 1.66196,-0.0466 0.0754,2.71198 0.0754,2.71198 h -1.54069 c -1.97935,0 -3.6288,0.80776 -4.64895,2.27666 -1.00191,1.44263 -1.28428,3.85342 -1.18304,10.10048 l 0.0781,4.8214 -2.71198,-2.6e-4 -2.71198,-3.7e-4 z m -60.79767,-37.04166 -8.90941,-8.73125 h -9.7399 c -7.8646,0 -10.13256,-0.0809 -11.77927,-0.42012 -9.08381,-1.87132 -15.58898,-9.66376 -15.97736,-19.13902 l -0.0805,-1.96435 2.24315,-0.48256 c 5.85514,-1.25958 9.88225,-3.44922 13.66207,-7.42838 3.33986,-3.51601 5.25026,-6.77219 6.79163,-11.57599 0.52063,-1.6226 0.56015,-2.4865 0.69924,-15.28686 l 0.14742,-13.56707 18.69026,0.0106 c 17.76476,0.01 18.79206,0.0366 20.74606,0.53636 6.22164,1.59123 11.0876,5.87681 13.52539,11.91216 1.37369,3.40092 1.40063,3.83471 1.40557,22.63636 0.004,16.60172 -0.0221,17.59219 -0.52303,19.57917 -1.30814,5.18884 -4.4832,9.45524 -9.11846,12.25269 -2.19037,1.32193 -6.22715,2.62028 -8.8086,2.83313 l -2.18282,0.17997 v 8.25533 c 0,7.66161 -0.0348,8.28682 -0.48385,8.69321 -0.26612,0.24083 -0.68957,0.43788 -0.941,0.43788 -0.25144,0 -4.46639,-3.92907 -9.36657,-8.73125 z m 9.99767,-25.66458 v -3.43959 h -7.54062 -7.54062 v -5.50885 -5.50884 l 3.43958,-1.65218 3.43958,-1.65217 v -3.40726 -3.40726 l -1.94081,0.88446 c -1.06745,0.48645 -2.55177,1.19405 -3.29849,1.57245 -0.74673,0.37839 -1.42118,0.68799 -1.49878,0.68799 -0.0776,0 -0.14118,-3.18493 -0.1413,-7.07761 l -2.1e-4,-7.0776 h -3.70059 -3.70058 l -0.0695,8.81799 -0.0695,8.818 -2.64583,1.15569 -2.64584,1.1557 -0.0734,3.72458 -0.0735,3.72456 2.64833,-1.32899 c 1.45658,-0.73095 2.71002,-1.32899 2.78542,-1.32899 0.0754,0 0.1371,3.21469 0.1371,7.14375 v 7.14375 h 11.24479 11.24479 z m -92.45686,8.67237 c -0.35245,-0.50318 -0.41188,-1.83945 -0.41188,-9.26041 v -8.67238 h -3.18616 c -5.17081,0 -8.80545,-0.99859 -12.51407,-3.43814 -3.4579,-2.27463 -6.31891,-5.77948 -7.83002,-9.59207 -1.47277,-3.71587 -1.47287,-3.71744 -1.47287,-21.89479 0,-19.09915 0.001,-19.11445 2.10408,-23.41562 2.61658,-5.352352 6.9012,-8.933432 12.87874,-10.76406 1.94569,-0.595868 2.00378,-0.597558 23.51405,-0.684503 14.5838,-0.05895 22.27457,0.0065 23.76024,0.202298 2.60559,0.343336 5.76745,1.412634 7.88797,2.6676 3.08767,1.827342 6.60891,5.924195 7.95394,9.254175 1.55256,3.84375 1.5077,3.25789 1.60965,21.02032 0.062,10.79183 -0.004,17.1412 -0.19196,18.55844 -0.63006,4.74382 -2.51501,8.47372 -6.07145,12.01401 -1.59549,1.58825 -2.84344,2.55783 -4.18961,3.25507 -4.52318,2.34273 -7.34127,2.81355 -16.85353,2.81571 l -6.86454,0.002 -9.24362,9.26042 c -9.67384,9.69141 -9.98914,9.94277 -10.87896,8.67237 z m 0.21139,-33.69777 c 4.57617,-1.17988 7.81115,-4.33035 9.44792,-9.20114 1.27619,-3.79775 2.5398,-12.13539 3.06133,-20.19949 l 0.17462,-2.69998 4.32699,-0.0781 4.32699,-0.0781 -2.6e-4,16.20572 -4.5e-4,16.20573 h 3.70417 3.70417 v -19.7776 -19.7776 h -13.36146 -13.36146 v 3.63802 3.63802 h 1.92829 1.92829 l -0.21324,2.57969 c -0.60101,7.27063 -1.81342,14.65646 -2.96433,18.05826 -1.1077,3.27408 -2.44372,4.41976 -5.47453,4.69459 l -1.55448,0.14095 v 3.53513 3.53513 h 1.35087 c 0.74298,0 2.08244,-0.18862 2.97657,-0.41915 z"
       id="path7392" /><path
       style="fill:none;stroke:#000000;stroke-width:0.264583px;stroke-linecap:butt;stroke-linejoin:miter;stroke-opacity:1"
       d="m -534.58996,163.5714 -5.97305,-0.0492 c -13.30996,-1.46655 -18.32606,-10.41767 -18.82463,-19.91545 l 0.018,-30.43365 c 1.56902,-9.96936 6.59178,-18.393603 19.31208,-19.464633 l 41.56143,0.281019 c 11.03714,1.924076 17.31637,7.967154 18.59034,18.343344 l -0.0549,32.08013 c -1.77827,9.34517 -5.95037,17.64237 -19.92381,19.07157 l -13.85866,0.0111 -18.50507,18.45994 c -0.8953,0.27762 -1.95533,0.46916 -2.22718,-0.98778 z"
       id="path6050"
       sodipodi:nodetypes="ccccccccccccc"
       class="UnoptimicedTransforms" /><path
       style="fill:none;stroke:#000000;stroke-width:0.264583px;stroke-linecap:butt;stroke-linejoin:miter;stroke-opacity:1"
       d="m -505.19406,148.17902 -7.47226,-0.009 -0.19376,-32.48227 -8.29048,0.0124 c -1.8383,30.6485 -7.85672,32.27995 -17.1882,32.52978 l 0.0452,-7.05381 c 9.79189,2.18427 9.01767,-18.75266 9.95407,-25.47279 l -3.71986,-0.004 0.10944,-7.24714 26.53399,0.1188 z"
       id="path6052"
       sodipodi:nodetypes="ccccccccccc"
       class="UnoptimicedTransforms" /></g></svg>
